PathFileType	4	(X/Y/Z)	/Users/itak/Documents/Research/Walk-IL/dataset/trc/00528_00183.trc
DataRate	CameraRate	NumFrames	NumMarkers	Units	OrigDataRate	OrigDataStartFrame	OrigNumFrames
100.000000	100.000000	4	53	mm	100.000000	333	534
Frame#	Time	RPSI			LPSI			L3			STRN			T10			C7			CLAV			RBAK			LBAK			LSHO			LUPA			LAEL			LAOL			LWTS			LWPS			LFRA			LIFD			LHPS			LHTS			RSHO			RUPA			RAEL			RAOL			RWTS			RWPS			RFRA			RIFD			RHTS			RHPS			RBHD			LFHD			RFHD			LBHD			LHIP			RHIP			RASI			LASI			LKNE			LTHI			LANK			LTIP			LTOE			LMT1			LMT5			LHEE			RKNE			RTHI			RANK			RTIP			RTOE			RMT1			RMT5			RHEE			
		X1	Y1	Z1	X2	Y2	Z2	X3	Y3	Z3	X4	Y4	Z4	X5	Y5	Z5	X6	Y6	Z6	X7	Y7	Z7	X8	Y8	Z8	X9	Y9	Z9	X10	Y10	Z10	X11	Y11	Z11	X12	Y12	Z12	X13	Y13	Z13	X14	Y14	Z14	X15	Y15	Z15	X16	Y16	Z16	X17	Y17	Z17	X18	Y18	Z18	X19	Y19	Z19	X20	Y20	Z20	X21	Y21	Z21	X22	Y22	Z22	X23	Y23	Z23	X24	Y24	Z24	X25	Y25	Z25	X26	Y26	Z26	X27	Y27	Z27	X28	Y28	Z28	X29	Y29	Z29	X30	Y30	Z30	X31	Y31	Z31	X32	Y32	Z32	X33	Y33	Z33	X34	Y34	Z34	X35	Y35	Z35	X36	Y36	Z36	X37	Y37	Z37	X38	Y38	Z38	X39	Y39	Z39	X40	Y40	Z40	X41	Y41	Z41	X42	Y42	Z42	X43	Y43	Z43	X44	Y44	Z44	X45	Y45	Z45	X46	Y46	Z46	X47	Y47	Z47	X48	Y48	Z48	X49	Y49	Z49	X50	Y50	Z50	X51	Y51	Z51	X52	Y52	Z52	X53	Y53	Z53	

334	3.33	343.4380187988281	937.6503295898438	365.1251220703125	402.4525756835938	925.2254028320312	256.5309448242188	366.9054870605469	1006.156066894531	305.7302856445312	555.069580078125	1182.929077148438	389.6200561523438	346.916015625	1111.0693359375	302.8110656738281	371.8028869628906	1343.148681640625	316.2438354492188	516.9524536132812	1275.036254882812	373.3948364257812	299.8923950195312	1218.93017578125	380.2323608398438	382.4836730957031	1287.878051757812	228.1483764648438	494.6049194335938	1338.2890625	191.5970458984375	500.4923400878906	1210.862060546875	131.5929107666016	506.362060546875	1000.681213378906	110.639533996582	418.8706359863281	996.100830078125	158.3634185791016	559.820068359375	801.5294189453125	168.0994873046875	492.94873046875	778.6385498046875	106.2557830810547	514.9248657226562	913.6793212890625	112.4305114746094	537.6971435546875	644.8914184570312	168.2987976074219	507.6131286621094	722.76611328125	112.6490707397461	562.64404296875	723.2431030273438	147.8771057128906	365.7066040039062	1342.174194335938	472.6414184570312	332.9589233398438	1275.017211914062	523.4215698242188	358.3800048828125	1014.875915527344	597.6919555664062	327.5373229980469	985.4392700195312	546.652099609375	503.0142822265625	843.685546875	631.4974975585938	422.6282958984375	805.4793701171875	647.7254028320312	371.0379333496094	963.0211791992188	612.5738525390625	539.2697143554688	690.9736328125	661.3701782226562	527.2335815429688	759.7584228515625	674.6690063476562	459.2597961425781	740.6949462890625	669.033203125	400.1173095703125	1513.916870117188	410.5875244140625	579.288330078125	1543.391845703125	327.3428344726562	529.148681640625	1548.083862304688	443.9799499511719	450.1070861816406	1506.422485351562	258.0086975097656	568.2197875976562	862.798828125	203.1005249023438	378.4078369140625	853.14013671875	532.1474609375	495.6588745117188	903.924072265625	521.4451293945312	605.3451538085938	912.911376953125	306.1085815429688	726.0236206054688	490.8918151855469	331.2488708496094	675.5211181640625	631.3389892578125	276.4742431640625	729.4922485351562	54.15301513671875	329.2489929199219	735.338134765625	341.6600952148438	323.7628784179688	891.4517211914062	85.85860443115234	440.3004760742188	815.6590576171875	70.95176696777344	453.7706298828125	832.9127197265625	62.29975509643555	350.6668090820312	669.3724365234375	48.59396743774414	378.5804138183594	403.4018249511719	463.9971313476562	473.757568359375	408.656982421875	721.635498046875	541.319580078125	310.2989501953125	48.59098434448242	363.3483276367188	403.9859008789062	319.9052429199219	437.1492614746094	510.8478088378906	35.38897705078125	412.5755310058594	466.3229370117188	39.88478469848633	348.9359130859375	405.0143432617188	38.63695907592773	423.9112548828125	283.7526245117188	43.52104187011719	297.9087524414062	
335	3.34	350.5687866210938	936.1332397460938	368.0175476074219	410.2867126464844	923.686767578125	259.8084411621094	374.2344665527344	1004.652160644531	308.4638366699219	561.6912231445312	1181.60595703125	393.3258056640625	354.0249328613281	1109.620483398438	305.3883056640625	378.8250427246094	1341.695190429688	319.1749877929688	523.6455688476562	1273.664428710938	377.0189208984375	306.6297607421875	1217.417846679688	382.6412658691406	389.9571838378906	1286.482788085938	231.1030120849609	502.202880859375	1336.974975585938	195.0844573974609	508.158203125	1209.478759765625	135.2245635986328	513.1530151367188	999.274658203125	114.3895721435547	425.5606994628906	995.0819091796875	161.9627838134766	565.1351928710938	799.6476440429688	172.1779327392578	498.3253173828125	777.1266479492188	110.0685348510742	521.2709350585938	912.2380981445312	116.2908401489258	541.5086669921875	643.1959228515625	172.7972564697266	512.4629516601562	721.193359375	116.6946868896484	567.3511962890625	721.2293090820312	152.1970977783203	371.8636779785156	1340.607055664062	475.5488891601562	339.3523864746094	1273.3203125	526.29931640625	367.5584716796875	1013.639831542969	601.3801879882812	336.8407897949219	983.69775390625	550.6055297851562	514.0654296875	843.9430541992188	635.07763671875	434.2114868164062	805.122802734375	652.1224365234375	380.81640625	961.9854125976562	616.4254150390625	551.9276123046875	691.696533203125	665.3826904296875	539.3523559570312	760.4476928710938	678.445068359375	471.4608764648438	740.7391967773438	673.6311645507812	407.7278442382812	1512.738159179688	414.064453125	587.0087890625	1541.326049804688	330.6793518066406	536.9813842773438	1546.262817382812	447.341552734375	457.5683288574219	1504.984252929688	261.4645080566406	576.3214111328125	861.494140625	207.1884307861328	384.9026489257812	852.1189575195312	535.4246215820312	502.0838012695312	902.8968505859375	524.8839721679688	613.123291015625	911.9473266601562	310.1766967773438	732.25244140625	488.7636108398438	333.8479614257812	682.515380859375	629.4422607421875	279.3927917480469	752.65673828125	52.20306396484375	340.2605590820312	746.7698364257812	339.944091796875	328.6378479003906	912.7654418945312	92.17332458496094	451.4337158203125	837.4475708007812	74.9046630859375	464.8748779296875	855.721435546875	64.26421356201172	362.0680236816406	692.548095703125	45.7583122253418	389.340576171875	408.0313720703125	463.2483215332031	475.7122802734375	414.9161376953125	720.5799560546875	544.5909423828125	310.5607299804688	49.03997421264648	363.4247436523438	407.26171875	319.2835693359375	438.3052978515625	510.93212890625	35.34280395507812	412.5949096679688	466.4586181640625	39.81658172607422	348.9987487792969	405.1590270996094	38.67560577392578	423.9002990722656	283.8422546386719	44.46490859985352	298.0575561523438	
336	3.35	357.8070373535156	934.596923828125	370.8046875	418.2548522949219	922.1533203125	263.015869140625	381.7123107910156	1003.120178222656	311.1720275878906	568.3893432617188	1180.271240234375	397.0397033691406	361.2635498046875	1108.131591796875	307.9615783691406	385.8862609863281	1340.219604492188	322.068603515625	530.393310546875	1272.285278320312	380.6143188476562	313.4408874511719	1215.864135742188	385.0633239746094	397.4839172363281	1285.049560546875	234.0389099121094	509.8388671875	1335.624389648438	198.5415802001953	515.903076171875	1208.04541015625	138.8386383056641	520.0941772460938	997.8241577148438	118.1081848144531	432.4310302734375	993.9796142578125	165.5672607421875	570.7329711914062	797.7620849609375	176.2138061523438	503.9732666015625	775.57275390625	113.8786315917969	527.8134765625	910.7499389648438	120.1155700683594	545.6488647460938	641.5050659179688	177.3325042724609	517.5787963867188	719.5971069335938	120.7760391235352	572.3534545898438	719.218994140625	156.5074920654297	378.0794372558594	1339.04345703125	478.4276733398438	345.8064575195312	1271.629272460938	529.1587524414062	376.6510925292969	1012.384948730469	604.89306640625	346.0785217285156	981.9901123046875	554.3467407226562	524.91552734375	844.131103515625	638.5083618164062	445.5883483886719	804.6873168945312	656.25634765625	390.477783203125	960.91845703125	620.0707397460938	564.299560546875	692.3290405273438	669.150634765625	551.2019653320312	761.031494140625	682.013427734375	483.379638671875	740.7260131835938	677.9906616210938	415.3201904296875	1511.529296875	417.4968566894531	594.7017211914062	1539.290283203125	333.986083984375	544.7923583984375	1544.4462890625	450.6742858886719	465.0233764648438	1503.551147460938	264.8659057617188	584.5648193359375	860.1657104492188	211.2822418212891	391.36669921875	851.0538940429688	538.6070556640625	508.496826171875	901.809814453125	528.3296508789062	621.0036010742188	910.9080200195312	314.2967529296875	738.5963745117188	486.6354064941406	336.372314453125	689.655029296875	627.5792846679688	282.3737182617188	774.3294067382812	50.89666366577148	350.823974609375	757.8247680664062	338.3638000488281	333.3176879882812	932.5044555664062	98.39774322509766	461.9667358398438	857.6339721679688	79.00350952148438	475.3992614746094	877.0298461914062	66.54254913330078	372.9260864257812	714.2800903320312	43.66401672363281	399.5910949707031	412.7446899414062	462.4809265136719	477.6728210449219	421.0744018554688	719.502685546875	547.7876586914062	310.8321838378906	49.54297637939453	363.5060729980469	410.623779296875	318.654296875	439.4888916015625	511.0123291015625	35.30351257324219	412.6148986816406	466.5884399414062	39.78712844848633	349.053466796875	405.3125915527344	38.72264862060547	423.8968200683594	283.9498291015625	45.51909255981445	298.1887817382812	
337	3.36	365.1698913574219	933.0737915039062	373.4940185546875	426.3656005859375	920.655029296875	266.1573486328125	389.3379821777344	1001.579345703125	313.87109375	575.1721801757812	1178.94287109375	400.7611694335938	368.6301879882812	1106.61572265625	310.5541687011719	392.9920349121094	1338.735717773438	324.9332885742188	537.200927734375	1270.915283203125	384.1793212890625	320.3337707519531	1214.277587890625	387.5084533691406	405.0652160644531	1283.5888671875	236.9664611816406	517.5120239257812	1334.252197265625	201.9692687988281	523.7177124023438	1206.574829101562	142.4363708496094	527.1856689453125	996.3353271484375	121.7994689941406	439.4862365722656	992.8014526367188	169.1909790039062	576.62744140625	795.8846435546875	180.1940612792969	509.8984680175781	773.9935302734375	117.6795196533203	534.5491333007812	909.2212524414062	123.9008712768555	550.1412963867188	639.8282470703125	181.86669921875	522.98095703125	717.9896850585938	124.8659362792969	577.6665649414062	717.2265625	160.7933044433594	384.3620300292969	1337.494140625	481.2860717773438	352.3237915039062	1269.949829101562	532.0048828125	385.6349487304688	1011.111633300781	608.2471313476562	355.2196960449219	980.3172607421875	557.8946533203125	535.5488891601562	844.2503662109375	641.7872924804688	456.7485961914062	804.1675415039062	660.1416015625	399.9923706054688	959.8203735351562	623.5277099609375	576.3943481445312	692.8788452148438	672.681640625	562.7818603515625	761.5153198242188	685.37744140625	495.0352172851562	740.64013671875	682.0926513671875	422.8935546875	1510.309814453125	420.875244140625	602.3648071289062	1537.303466796875	337.2588195800781	552.5711669921875	1542.657958984375	453.9726867675781	472.4619445800781	1502.121215820312	268.2143249511719	592.9639892578125	858.8386840820312	215.3802185058594	397.8051452636719	849.9533081054688	541.6799926757812	514.9219360351562	900.6660766601562	531.801025390625	628.99072265625	909.7977905273438	318.4795837402344	745.155517578125	484.5672607421875	338.8547058105469	696.966796875	625.7914428710938	285.4418029785156	794.435546875	50.07827758789062	360.8856506347656	768.5592651367188	336.9067077636719	337.838623046875	950.5817260742188	104.3200759887695	472.0143432617188	876.1077880859375	83.05815887451172	485.3743896484375	896.7703247070312	68.97648620605469	383.2774353027344	734.4434814453125	42.1730842590332	409.2266235351562	417.5358581542969	461.697265625	479.6404724121094	427.1121520996094	718.4070434570312	550.8793334960938	311.11279296875	50.10287094116211	363.5877685546875	414.0681762695312	318.0203247070312	440.7047729492188	511.0890502929688	35.27079010009766	412.6384582519531	466.7174987792969	39.80020141601562	349.1106262207031	405.4771118164062	38.78002166748047	423.9026184082031	284.0897216796875	46.67728805541992	298.2919311523438	
